<?xml version="1.0" encoding="utf-8"?>
<!-- Generator: Adobe Illustrator 19.1.1, SVG Export Plug-In . SVG Version: 6.00 Build 0)  -->
<svg version="1.1" id="Calque_1" xmlns="http://www.w3.org/2000/svg" xmlns:xlink="http://www.w3.org/1999/xlink" x="0px" y="0px"
	 viewBox="0 0 44.6 26.9" style="enable-background:new 0 0 44.6 26.9;" xml:space="preserve">
<style type="text/css">
	.st0{fill:#FFFFFF;}
</style>
<g>
	<g>
		<path class="st0" d="M31.6,13.7h-9.2c-0.4,0-0.7,0.3-0.7,0.7v5.9h-9.2v-8.5c0-0.4-0.3-0.7-0.7-0.7h-1.3c-0.4,0-0.7,0.3-0.7,0.7
			v14.4c0,0.4,0.3,0.7,0.7,0.7H12c0.4,0,0.7-0.3,0.7-0.7v-2h21v2c0,0.4,0.3,0.7,0.7,0.7h1.3c0.4,0,0.7-0.3,0.7-0.7v-7.9
			C36.2,15.8,34.2,13.7,31.6,13.7z"/>
		<path class="st0" d="M20.5,15.7c0-1.8-1.5-3.3-3.3-3.3s-3.3,1.5-3.3,3.3s1.5,3.3,3.3,3.3S20.5,17.5,20.5,15.7z"/>
		<polygon class="st0" points="22.3,0 0,8.9 1.5,12.6 22.3,4.3 43.1,12.6 44.6,8.9 		"/>
	</g>
</g>
</svg>
