<?xml version="1.0" encoding="utf-8"?>
<!-- Generator: Adobe Illustrator 19.1.1, SVG Export Plug-In . SVG Version: 6.00 Build 0)  -->
<svg version="1.1" id="Calque_1" xmlns="http://www.w3.org/2000/svg" xmlns:xlink="http://www.w3.org/1999/xlink" x="0px" y="0px"
	 viewBox="0 0 44.6 27.7" style="enable-background:new 0 0 44.6 27.7;" xml:space="preserve">
<style type="text/css">
	.st0{fill:#FFFFFF;}
</style>
<g>
	<g>
		<circle class="st0" cx="10.3" cy="18.3" r="3.1"/>
		<path class="st0" d="M12.5,22.2h-0.4c-0.5,0.3-1.2,0.4-1.8,0.4s-1.2-0.1-1.8-0.4H8.1c-1.8,0-3.3,1.5-3.3,3.3v1
			c0,0.7,0.5,1.2,1.2,1.2h8.7c0.7,0,1.2-0.5,1.2-1.2v-1C15.8,23.7,14.3,22.2,12.5,22.2z"/>
		<path class="st0" d="M24.8,22.2h-0.4c-0.5,0.3-1.2,0.4-1.8,0.4s-1.2-0.1-1.8-0.4h-0.4c-1.8,0-3.3,1.5-3.3,3.3v1
			c0,0.7,0.5,1.2,1.2,1.2h8.7c0.7,0,1.2-0.5,1.2-1.2v-1C28.1,23.7,26.6,22.2,24.8,22.2z"/>
		<circle class="st0" cx="22.6" cy="18.3" r="3.1"/>
		<circle class="st0" cx="34.8" cy="18.3" r="3.1"/>
		<path class="st0" d="M37,22.2h-0.4c-0.5,0.3-1.2,0.4-1.8,0.4s-1.2-0.1-1.8-0.4h-0.4c-1.8,0-3.3,1.5-3.3,3.3v1
			c0,0.7,0.5,1.2,1.2,1.2h8.7c0.7,0,1.2-0.5,1.2-1.2v-1C40.3,23.7,38.9,22.2,37,22.2z"/>
		<polygon class="st0" points="22.3,0 0,8.9 1.5,12.6 22.3,4.3 43.1,12.6 44.6,8.9 		"/>
	</g>
</g>
</svg>
