<?xml version="1.0" encoding="utf-8"?>
<!-- Generator: Adobe Illustrator 19.1.1, SVG Export Plug-In . SVG Version: 6.00 Build 0)  -->
<svg version="1.1" id="Calque_1" xmlns="http://www.w3.org/2000/svg" xmlns:xlink="http://www.w3.org/1999/xlink" x="0px" y="0px"
	 viewBox="-457 267.3 44.6 27.7" style="enable-background:new -457 267.3 44.6 27.7;" xml:space="preserve">
<style type="text/css">
	.st0{fill:#FF96A0;}
</style>
<g>
	<g>
		<circle class="st0" cx="-446.7" cy="285.6" r="3.1"/>
		<path class="st0" d="M-444.5,289.5h-0.4c-0.5,0.3-1.2,0.4-1.8,0.4c-0.6,0-1.2-0.1-1.8-0.4h-0.4c-1.8,0-3.3,1.5-3.3,3.3v1
			c0,0.7,0.5,1.2,1.2,1.2h8.7c0.7,0,1.2-0.5,1.2-1.2v-1C-441.2,291-442.7,289.5-444.5,289.5z"/>
		<path class="st0" d="M-432.2,289.5h-0.4c-0.5,0.3-1.2,0.4-1.8,0.4s-1.2-0.1-1.8-0.4h-0.4c-1.8,0-3.3,1.5-3.3,3.3v1
			c0,0.7,0.5,1.2,1.2,1.2h8.7c0.7,0,1.2-0.5,1.2-1.2v-1C-428.9,291-430.4,289.5-432.2,289.5z"/>
		<circle class="st0" cx="-434.4" cy="285.6" r="3.1"/>
		<circle class="st0" cx="-422.2" cy="285.6" r="3.1"/>
		<path class="st0" d="M-420,289.5h-0.4c-0.5,0.3-1.2,0.4-1.8,0.4c-0.6,0-1.2-0.1-1.8-0.4h-0.4c-1.8,0-3.3,1.5-3.3,3.3v1
			c0,0.7,0.5,1.2,1.2,1.2h8.7c0.7,0,1.2-0.5,1.2-1.2v-1C-416.7,291-418.1,289.5-420,289.5z"/>
		<polygon class="st0" points="-434.7,267.3 -457,276.2 -455.5,279.9 -434.7,271.6 -413.9,279.9 -412.4,276.2 		"/>
	</g>
</g>
</svg>
