<?xml version="1.0" encoding="utf-8"?>
<!-- Generator: Adobe Illustrator 19.1.1, SVG Export Plug-In . SVG Version: 6.00 Build 0)  -->
<svg version="1.1" id="Calque_1" xmlns="http://www.w3.org/2000/svg" xmlns:xlink="http://www.w3.org/1999/xlink" x="0px" y="0px"
	 viewBox="0 0 145.3 71.8" style="enable-background:new 0 0 145.3 71.8;" xml:space="preserve">
<style type="text/css">
	.st0{fill:#FFFFFF;}
	.st1{fill:#FF96A0;}
</style>
<g>
	<g>
		<path class="st0" d="M1.2,0.2h3.2c5.3,0,8.3,2.9,8.3,7.8c0,5.2-3.1,7.8-8.3,7.8H1.2V0.2z M4.7,14.1c3.7,0,6.1-2.1,6.1-6.2
			c0-3.9-2.4-6.2-6.1-6.2H3V14h1.7V14.1z"/>
		<path class="st0" d="M19.4,3.9c3.4,0,5.5,2.4,5.5,5.9c0,0.1,0,0.3,0,0.5h-9.3c0,2.6,1.8,4.1,4.2,4.1c2,0,3-1,3.6-1.8l1.2,0.8
			c-0.6,1.1-2.2,2.5-4.8,2.5c-3.5,0-5.9-2.5-5.9-6C13.8,6.3,16.3,3.9,19.4,3.9z M23.1,9c-0.1-2.4-1.8-3.6-3.7-3.6S15.8,6.8,15.7,9
			H23.1z"/>
		<path class="st0" d="M26.9,12.8c0.5,0.9,1.3,1.8,2.9,1.8c1.2,0,2.1-0.7,2.1-1.8c0-2.7-5.8-1.8-5.8-5.7c0-2,1.6-3.1,3.7-3.1
			c2.2,0,3.3,1.4,3.6,2.2l-1.3,0.7c-0.3-0.6-0.9-1.5-2.4-1.5c-1.1,0-1.9,0.6-1.9,1.6c0,2.6,5.8,1.6,5.8,5.7c0,2-1.7,3.4-3.9,3.4
			c-2.4,0-3.5-1.4-4-2.5L26.9,12.8z"/>
		<path class="st0" d="M35.4,1.8h1.8v2.4h2.5v1.5h-2.5v6c0,2.2,0.6,2.7,2.1,2.7c0.2,0,0.5,0,0.5,0V16c0,0-0.5,0.1-1.1,0.1
			c-2.3,0-3.3-1.5-3.3-4.1V5.7H34V4.2h1.4V1.8z"/>
		<path class="st0" d="M42.2,0c0.7,0,1.2,0.5,1.2,1.2s-0.5,1.2-1.2,1.2S41,1.9,41,1.2S41.5,0,42.2,0z M41.3,4.2H43v11.6h-1.8V4.2
			H41.3z"/>
		<path class="st0" d="M54.8,8.5v7.2H53V8.5c0-1.8-1.2-3-2.7-3c-1.8,0-3,1.3-3,3.2v7h-1.8V4.2h1.7v1.7c0.6-1,1.8-2,3.4-2
			C53.4,3.9,54.8,5.9,54.8,8.5z"/>
		<path class="st0" d="M60.8,8.4c1.5,0,2.6,0.6,3,1V8c0-1.6-1.1-2.6-2.8-2.6c-1.4,0-2.6,0.5-3.4,1L57,5.2c0.8-0.5,2.3-1.3,4.3-1.3
			c3.2,0,4.4,1.8,4.4,4.2v7.6h-1.5l-0.2-1c-0.6,0.7-1.6,1.3-3.1,1.3c-2.5,0-4.4-1.6-4.4-3.8C56.4,10,58.2,8.4,60.8,8.4z M61.1,14.6
			c1.7,0,2.9-1,2.9-2.4s-1.2-2.4-2.9-2.4c-1.8,0-2.9,1-2.9,2.4C58.2,13.5,59.3,14.6,61.1,14.6z"/>
		<path class="st0" d="M68.1,1.8h1.8v2.4h2.5v1.5h-2.5v6c0,2.2,0.6,2.7,2.1,2.7c0.2,0,0.5,0,0.5,0V16c0,0-0.5,0.1-1.1,0.1
			c-2.3,0-3.3-1.5-3.3-4.1V5.7h-1.4V4.2h1.4V1.8z"/>
		<path class="st0" d="M74.8,0C75.5,0,76,0.5,76,1.2s-0.5,1.2-1.2,1.2s-1.2-0.5-1.2-1.2S74.1,0,74.8,0z M73.9,4.2h1.8v11.6h-1.8V4.2
			z"/>
		<path class="st0" d="M83.4,3.9c3.5,0,6,2.6,6,6.1s-2.5,6-6,6s-6-2.6-6-6.1C77.4,6.5,80,3.9,83.4,3.9z M83.4,14.4
			c2.5,0,4.3-1.9,4.3-4.5s-1.8-4.5-4.3-4.5s-4.2,1.9-4.2,4.5C79.2,12.6,80.9,14.4,83.4,14.4z"/>
		<path class="st0" d="M100.4,8.5v7.2h-1.8V8.5c0-1.8-1.2-3-2.7-3c-1.8,0-3,1.3-3,3.2v7h-1.8V4.2h1.7v1.7c0.6-1,1.8-2,3.4-2
			C99,3.9,100.4,5.9,100.4,8.5z"/>
	</g>
</g>
<g>
	<path class="st1" d="M19.5,18.8C30.9,18.8,39,27,39,38.1s-8.3,19.3-19.5,19.3C8.2,57.5,0,49.4,0,38.2C0,27,8.4,18.8,19.5,18.8z
		 M19.5,50.6c6.8,0,11.8-5.3,11.8-12.5s-5-12.5-11.8-12.5c-6.9,0-11.7,5.4-11.7,12.5C7.8,45.5,12.6,50.6,19.5,50.6z"/>
	<path class="st1" d="M55.6,33.1c4.2,0,7.4,1.4,8.8,2.7v-3.5c0-4.2-3-6.8-7.8-6.8c-4.1,0-7.6,1.4-10.3,2.9l-3-5.4
		c3-1.9,7.9-4.2,14-4.2c10.9,0,14.7,5.9,14.7,14v23.8h-6.7l-0.6-2.8c-1.9,2.1-4.9,3.7-9.4,3.7c-7.8,0-13.9-4.9-13.9-12.3
		C41.3,38.1,47.1,33.1,55.6,33.1z M56.8,51.3c4.5,0,7.8-2.5,7.8-6.3c0-3.9-3.2-6.3-7.8-6.3S49,41.3,49,45S52.2,51.3,56.8,51.3z"/>
	<path class="st1" d="M80.5,46.3c1.7,2.5,4.2,4.8,8.8,4.8c3.2,0,5.6-1.6,5.6-4.6c0-7-17.9-4.5-17.9-17.3c0-6.5,5.5-10.4,12.6-10.4
		c6.9,0,10.6,4,12,6.8l-5.3,3.5c-1.1-1.7-3-4.1-7.1-4.1c-2.8,0-4.9,1.5-4.9,4c0,7,18,4.1,18,17.1c0,6.8-5.8,11.3-13.3,11.3
		s-11.4-4-13.3-7.3L80.5,46.3z"/>
	<path class="st1" d="M110.4,4.9c2.7,0,4.8,2.1,4.8,4.8c0,2.7-2.1,4.8-4.8,4.8s-4.8-2.1-4.8-4.8S107.7,4.9,110.4,4.9z M106.6,19.7
		h7.7v36.8h-7.7V19.7z"/>
	<path class="st1" d="M123.3,46.3c1.7,2.5,4.2,4.8,8.8,4.8c3.2,0,5.6-1.6,5.6-4.6c0-7-17.9-4.5-17.9-17.3c0-6.5,5.5-10.4,12.6-10.4
		c6.9,0,10.6,4,12,6.8l-5.3,3.5c-1.1-1.7-3-4.1-7.1-4.1c-2.8,0-4.9,1.5-4.9,4c0,7,18,4.1,18,17.1c0,6.8-5.8,11.3-13.3,11.3
		c-7.5,0-11.4-4-13.3-7.3L123.3,46.3z"/>
</g>
<g>
	<path class="st0" d="M4.1,71.5l-2.9-7.4H2l2.5,6.5L7,64.1h0.8l-2.9,7.4H4.1z"/>
	<path class="st0" d="M11.9,63.9c2.2,0,3.8,1.7,3.8,3.9c0,2.2-1.6,3.9-3.8,3.9s-3.8-1.6-3.8-3.9C8.1,65.6,9.7,63.9,11.9,63.9z
		 M11.9,71c1.8,0,3-1.4,3-3.2c0-1.8-1.2-3.2-3-3.2s-3,1.4-3,3.2C8.8,69.6,10.1,71,11.9,71z"/>
	<path class="st0" d="M16.9,69.7c0.3,0.7,0.8,1.3,1.9,1.3c0.8,0,1.6-0.5,1.6-1.4c0-2-3.8-1.3-3.8-3.8c0-1.2,0.9-1.9,2.2-1.9
		c1.4,0,2,0.9,2.2,1.5l-0.6,0.2c-0.2-0.5-0.6-1.1-1.6-1.1c-0.8,0-1.4,0.5-1.4,1.2c0,1.9,3.8,1.2,3.8,3.8c0,1.2-1,2.1-2.3,2.1
		c-1.6,0-2.2-0.9-2.5-1.7L16.9,69.7z"/>
	<path class="st0" d="M27.3,71.5l-2.6-7.4h2.1l1.7,5.3l1.7-5.3h2.1l-2.6,7.4H27.3z"/>
	<path class="st0" d="M35.2,66.7c0.8,0,1.3,0.2,1.6,0.4v-0.5c0-0.7-0.5-1.1-1.3-1.1c-0.7,0-1.4,0.2-2,0.5l-0.7-1.3
		c0.7-0.5,1.8-0.9,2.9-0.9c2.4,0,3.1,1.2,3.1,2.9v4.7h-1.7L37,70.9c-0.4,0.4-0.9,0.7-1.8,0.7c-1.5,0-2.8-0.9-2.8-2.5
		C32.3,67.7,33.4,66.7,35.2,66.7z M35.5,70.1c0.7,0,1.3-0.4,1.3-1c0-0.7-0.5-1-1.3-1s-1.3,0.4-1.3,1C34.3,69.7,34.8,70.1,35.5,70.1z
		"/>
	<path class="st0" d="M45.1,69.3l0.5,1.6c-0.4,0.3-1.2,0.8-2.3,0.8c-2.3,0-4-1.6-4-3.9s1.7-3.9,3.9-3.9c1.1,0,1.9,0.4,2.3,0.8
		l-0.6,1.6c-0.3-0.3-0.9-0.7-1.7-0.7c-1.3,0-2,1-2,2.2c0,1.3,0.9,2.2,2.1,2.2C44.2,69.9,44.8,69.5,45.1,69.3z"/>
	<path class="st0" d="M48.9,66.7c0.8,0,1.3,0.2,1.6,0.4v-0.5c0-0.7-0.5-1.1-1.3-1.1c-0.7,0-1.4,0.2-2,0.5l-0.7-1.3
		c0.7-0.5,1.8-0.9,2.9-0.9c2.4,0,3.1,1.2,3.1,2.9v4.7h-1.7l-0.1-0.5c-0.4,0.4-0.9,0.7-1.8,0.7c-1.5,0-2.8-0.9-2.8-2.5
		C46,67.7,47.1,66.7,48.9,66.7z M49.2,70.1c0.7,0,1.3-0.4,1.3-1c0-0.7-0.5-1-1.3-1s-1.3,0.4-1.3,1S48.5,70.1,49.2,70.1z"/>
	<path class="st0" d="M60,67.2v4.3h-2V67c0-0.8-0.6-1.3-1.2-1.3c-0.8,0-1.3,0.6-1.3,1.4v4.4h-2v-7.4h1.9V65c0.3-0.5,1-1,2-1
		C59.5,63.9,60,65.6,60,67.2z"/>
	<path class="st0" d="M66.4,69.3l0.5,1.6c-0.4,0.3-1.2,0.8-2.3,0.8c-2.3,0-4-1.6-4-3.9s1.7-3.9,3.9-3.9c1.1,0,1.9,0.4,2.3,0.8
		l-0.6,1.6c-0.3-0.3-0.9-0.7-1.7-0.7c-1.3,0-2,1-2,2.2c0,1.3,0.9,2.2,2.1,2.2C65.5,69.9,66.1,69.5,66.4,69.3z"/>
	<path class="st0" d="M70.9,63.9c2.3,0,3.6,1.5,3.6,4c0,0.1,0,0.3,0,0.4h-5.2c0,1,0.8,1.7,1.9,1.7c1,0,1.6-0.6,1.8-0.9l1.3,1
		c-0.3,0.5-1.3,1.6-3.1,1.6c-2.4,0-3.9-1.6-3.9-3.9C67.3,65.6,68.8,63.9,70.9,63.9z M72.5,67c0-0.9-0.7-1.5-1.6-1.5
		c-0.9,0-1.5,0.7-1.6,1.5H72.5z"/>
	<path class="st0" d="M74.7,70.3l1.1-1c0.4,0.4,0.9,0.8,1.7,0.8c0.6,0,0.9-0.2,0.9-0.7c0-1.1-3.5-0.7-3.5-3.3c0-1.4,1.2-2.2,2.7-2.2
		c1.4,0,2.2,0.7,2.5,1.3l-1.3,1c-0.2-0.3-0.6-0.7-1.3-0.7c-0.5,0-0.8,0.2-0.8,0.6c0,1.2,3.5,0.6,3.5,3.3c0,1.4-1.2,2.4-2.8,2.4
		C76,71.7,75.1,70.9,74.7,70.3z"/>
	<path class="st0" d="M87.7,63.9c2.1,0,3.5,1.6,3.5,3.7v0.3h-6.3c0,2,1.2,3.1,3,3.1c1.4,0,2.1-0.7,2.5-1.3l0.5,0.3
		c-0.5,0.8-1.4,1.6-3,1.6c-2.2,0-3.7-1.5-3.7-3.8C84.2,65.4,85.8,63.9,87.7,63.9z M90.4,67.3c-0.1-1.8-1.3-2.7-2.7-2.7
		c-1.3,0-2.6,0.9-2.7,2.7H90.4z"/>
	<path class="st0" d="M98,66.7v4.8h-0.7v-4.7c0-1.3-0.8-2.2-2-2.2c-1.3,0-2.2,1-2.2,2.4v4.5h-0.7v-7.4h0.7v1.2
		c0.4-0.7,1.3-1.3,2.3-1.3C96.9,63.9,98,65,98,66.7z"/>
	<path class="st0" d="M105.8,63.9c2.3,0,3.6,1.5,3.6,4c0,0.1,0,0.3,0,0.4h-5.2c0,1,0.8,1.7,1.9,1.7c1,0,1.6-0.6,1.8-0.9l1.3,1
		c-0.3,0.5-1.3,1.6-3.1,1.6c-2.4,0-3.9-1.6-3.9-3.9C102.2,65.6,103.7,63.9,105.8,63.9z M107.4,67c0-0.9-0.7-1.5-1.6-1.5
		s-1.5,0.7-1.6,1.5H107.4z M105.7,61.2h2.1l-1.4,2h-1.6L105.7,61.2z"/>
	<path class="st0" d="M115.4,69.3l0.5,1.6c-0.4,0.3-1.2,0.8-2.3,0.8c-2.3,0-4-1.6-4-3.9s1.7-3.9,3.9-3.9c1.1,0,1.9,0.4,2.3,0.8
		l-0.6,1.6c-0.3-0.3-0.9-0.7-1.7-0.7c-1.3,0-2,1-2,2.2c0,1.3,0.9,2.2,2.1,2.2C114.5,69.9,115.1,69.5,115.4,69.3z"/>
	<path class="st0" d="M120.3,63.9c2.3,0,4,1.7,4,3.9c0,2.2-1.7,3.9-4,3.9s-4-1.6-4-3.9S118,63.9,120.3,63.9z M120.3,69.9
		c1.2,0,2-0.9,2-2.1s-0.9-2.2-2-2.2c-1.2,0-2,0.9-2,2.2S119.1,69.9,120.3,69.9z"/>
	<path class="st0" d="M125,61.2h2v10.2h-2V61.2z"/>
	<path class="st0" d="M129.1,61.2c0.7,0,1.1,0.5,1.1,1.1s-0.5,1.1-1.1,1.1c-0.6,0-1.1-0.5-1.1-1.1C128,61.6,128.5,61.2,129.1,61.2z
		 M128.2,64.1h2v7.4h-2V64.1z"/>
	<path class="st0" d="M134.6,63.9c2.3,0,3.6,1.5,3.6,4c0,0.1,0,0.3,0,0.4H133c0,1,0.8,1.7,1.9,1.7c1,0,1.6-0.6,1.8-0.9l1.3,1
		c-0.3,0.5-1.3,1.6-3.1,1.6c-2.4,0-3.9-1.6-3.9-3.9C130.9,65.6,132.4,63.9,134.6,63.9z M136.2,67c0-0.9-0.7-1.5-1.6-1.5
		c-0.9,0-1.5,0.7-1.6,1.5H136.2z"/>
	<path class="st0" d="M138.8,68.3V64h2v4.5c0,0.8,0.6,1.3,1.2,1.3c0.8,0,1.3-0.6,1.3-1.4V64h2v7.4h-1.9v-0.8c-0.3,0.5-1,1-2,1
		C139.3,71.7,138.8,69.9,138.8,68.3z"/>
</g>
</svg>
