<?xml version="1.0" encoding="utf-8"?>
<!-- Generator: Adobe Illustrator 19.1.1, SVG Export Plug-In . SVG Version: 6.00 Build 0)  -->
<svg version="1.1" id="Calque_1" xmlns="http://www.w3.org/2000/svg" xmlns:xlink="http://www.w3.org/1999/xlink" x="0px" y="0px"
	 viewBox="-457 267.1 44.6 26.9" style="enable-background:new -457 267.1 44.6 26.9;" xml:space="preserve">
<g>
	<g>
		<path d="M-425.4,280.8h-9.2c-0.4,0-0.7,0.3-0.7,0.7v5.9h-9.2v-8.5c0-0.4-0.3-0.7-0.7-0.7h-1.3c-0.4,0-0.7,0.3-0.7,0.7
			v14.4c0,0.4,0.3,0.7,0.7,0.7h1.5c0.4,0,0.7-0.3,0.7-0.7v-2h21v2c0,0.4,0.3,0.7,0.7,0.7h1.3c0.4,0,0.7-0.3,0.7-0.7v-7.9
			C-420.8,282.9-422.8,280.8-425.4,280.8z"/>
		<path d="M-436.5,282.8c0-1.8-1.5-3.3-3.3-3.3c-1.8,0-3.3,1.5-3.3,3.3c0,1.8,1.5,3.3,3.3,3.3
			C-438,286.1-436.5,284.6-436.5,282.8z"/>
		<polygon points="-434.7,267.1 -457,276 -455.5,279.7 -434.7,271.4 -413.9,279.7 -412.4,276 		"/>
	</g>
</g>
</svg>
