<?xml version="1.0" encoding="utf-8"?>
<!-- Generator: Adobe Illustrator 19.1.1, SVG Export Plug-In . SVG Version: 6.00 Build 0)  -->
<svg version="1.1" id="Calque_1" xmlns="http://www.w3.org/2000/svg" xmlns:xlink="http://www.w3.org/1999/xlink" x="0px" y="0px"
	 viewBox="-459 265.4 39.3 31.6" style="enable-background:new -459 265.4 39.3 31.6;" xml:space="preserve">
<polygon points="-446,272.8 -444.8,275.1 -444.4,272.6 -441.8,272.2 -444.1,271 -443.7,268.4 -445.6,270.2 -447.9,269 
	-446.7,271.4 -448.6,273.2 "/>
<path d="M-424.7,283.5l-11.5-4.8c-2-0.8-4.3-0.8-6.3,0l-11.5,4.8c-3,1.3-5,4.2-5,7.5v6h16.4v-8.1c0-1.8,1.5-3.3,3.3-3.3
	c1.8,0,3.3,1.5,3.3,3.3v8.1h16.4v-6C-419.7,287.7-421.7,284.8-424.7,283.5z"/>
<path d="M-428.2,271.4c-1.6,1.6-4.1,1.6-5.7,0s-1.6-4.1,0-5.7c0.1-0.1,0.3-0.2,0.4-0.3c-1,0.2-2,0.6-2.8,1.4
	c-1.9,1.9-1.9,5.1,0,7c1.9,1.9,5.1,1.9,7,0c0.8-0.8,1.2-1.8,1.4-2.8C-428,271.2-428.1,271.3-428.2,271.4z"/>
</svg>
