<?xml version="1.0" encoding="UTF-8" standalone="no"?>
<svg
   viewBox="0 0 147.1076 84.402223"
   version="1.1"
   width="147.1076"
   height="84.402222"
   xmlns="http://www.w3.org/2000/svg">
  <title
     id="title6">logo</title>
  <path
     d="m 60.995615,54.872107 a 12.932327,12.932327 0 0 1 6.480727,1.601977 v -2.111697 c 0,-3.131138 -2.184515,-5.024384 -5.752556,-5.024384 a 15.721224,15.721224 0 0 0 -7.572984,2.111698 l -2.184515,-3.932127 a 19.529561,19.529561 0 0 1 10.340037,-3.131138 c 8.082704,0 10.849756,4.36903 10.849756,10.340037 V 72.275407 H 68.204513 L 67.76761,71.037516 c -1.456343,1.092257 -3.56804,1.893246 -6.990447,1.893246 -5.752555,0 -10.267219,-3.568041 -10.267219,-9.029328 0,-5.315652 4.223395,-9.029327 10.485671,-9.029327 z m 0.946623,13.543991 c 3.349589,0 5.752555,-1.893246 5.752555,-4.660298 0,-2.767052 -2.330149,-4.660298 -5.752555,-4.660298 -3.422407,0 -5.752556,1.966063 -5.752556,4.660298 0,2.694235 2.330149,4.660298 5.752556,4.660298 z"
     id="path8"
     style="stroke-width:0.728172" />
  <path
     d="m 34.344536,44.386436 c 8.373973,0 14.417797,6.116642 14.417797,14.272163 0,8.155522 -6.116642,14.272163 -14.417797,14.272163 -8.301156,0 -14.34498,-5.971007 -14.34498,-14.199346 a 14.017303,14.017303 0 0 1 14.34498,-14.34498 z m 0,23.519942 c 5.024383,0 8.738058,-3.932127 8.738058,-9.247779 0,-5.315652 -3.713675,-9.247779 -8.738058,-9.247779 -5.024384,0 -8.665242,3.932127 -8.665242,9.247779 0,5.315652 3.640858,9.247779 8.665242,9.247779 z"
     id="path10"
     style="stroke-width:0.728172" />
  <path
     d="m 79.491172,64.702423 a 7.4127865,7.4127865 0 0 0 6.480727,3.568041 c 2.402967,0 4.150578,-1.165075 4.150578,-3.422407 0,-5.242835 -13.252722,-3.349589 -13.252722,-12.743002 0,-4.805932 4.077761,-7.718619 9.320596,-7.718619 a 9.7065269,9.7065269 0 0 1 8.883694,5.024384 l -3.932128,2.621418 a 5.9054714,5.9054714 0 0 0 -5.242835,-2.985504 c -2.111697,0 -3.640858,1.092258 -3.640858,2.985504 0,5.242835 13.252724,2.985503 13.252724,12.597368 0,5.024384 -4.296213,8.301156 -9.830317,8.301156 -5.534104,0 -8.44679,-2.985504 -9.757499,-5.38847 z"
     id="path12"
     style="stroke-width:0.728172" />
  <path
     d="m 101.55477,34.774572 a 3.5243504,3.5243504 0 0 1 3.56804,3.56804 3.5680407,3.5680407 0 1 1 -7.136078,0 3.5243504,3.5243504 0 0 1 3.568038,-3.56804 z m -2.839867,10.267219 h 5.679737 V 72.20259 h -5.679737 z"
     id="path14"
     style="stroke-width:0.728172" />
  <path
     d="m 111.09382,64.702423 a 7.4127865,7.4127865 0 0 0 6.48073,3.568041 c 2.40296,0 4.15057,-1.165075 4.15057,-3.422407 0,-5.242835 -13.25272,-3.349589 -13.25272,-12.743002 0,-4.805932 4.07776,-7.718619 9.3206,-7.718619 a 9.7065269,9.7065269 0 0 1 8.88369,5.024384 l -3.93213,2.621418 a 5.9054714,5.9054714 0 0 0 -5.24283,-2.985504 c -2.1117,0 -3.64086,1.092258 -3.64086,2.985504 0,5.242835 13.25272,2.985503 13.25272,12.597368 0,5.024384 -4.29621,8.301156 -9.83031,8.301156 -5.53411,0 -8.44679,-2.985504 -9.7575,-5.38847 z"
     id="path16"
     style="stroke-width:0.728172" />
  <rect
     x="19.999556"
     y="31.934704"
     width="57.59837"
     height="4.0049434"
     id="rect18"
     style="stroke-width:0.728172" />
  <path
     d="m 19.999556,17.66254 a 6.0511057,6.0511057 0 0 1 6.189458,-6.189459 5.9345982,5.9345982 0 0 1 3.568041,1.092258 L 29.1017,14.677036 a 5.0535106,5.0535106 0 0 0 -2.839869,-0.946623 3.6918298,3.6918298 0 0 0 -3.713675,3.932127 3.6918298,3.6918298 0 0 0 3.713675,3.932127 5.7598371,5.7598371 0 0 0 2.985504,-0.946624 l 0.655354,2.111698 a 6.1530497,6.1530497 0 0 1 -3.640858,1.092257 5.9418799,5.9418799 0 0 1 -6.262275,-6.189458 z"
     id="path20"
     style="stroke-width:0.728172" />
  <path
     d="m 30.776495,17.66254 a 6.1894583,6.1894583 0 1 1 6.189458,6.189458 6.0074154,6.0074154 0 0 1 -6.189458,-6.189458 z m 2.5486,0 a 3.6918298,3.6918298 0 0 0 3.713675,3.932127 3.7355201,3.7355201 0 0 0 3.713675,-3.932127 3.6918298,3.6918298 0 0 0 -3.713675,-3.932127 3.7792104,3.7792104 0 0 0 -3.713675,3.932127 z"
     id="path22"
     style="stroke-width:0.728172" />
  <path
     d="m 44.174852,17.66254 a 6.1894583,6.1894583 0 1 1 6.189458,6.189458 6.0074154,6.0074154 0 0 1 -6.189458,-6.189458 z m 2.5486,0 a 3.7209567,3.7209567 0 1 0 7.42735,0 3.6918298,3.6918298 0 0 0 -3.713675,-3.932127 3.7355201,3.7355201 0 0 0 -3.713675,3.932127 z"
     id="path24"
     style="stroke-width:0.728172" />
  <path
     d="m 58.228563,11.76435 h 3.786492 c 2.330149,0 3.932126,1.456343 3.932126,3.713675 a 3.7355201,3.7355201 0 0 1 -3.859309,3.786493 h -1.383526 v 4.441846 h -2.475783 z m 3.422406,5.38847 a 1.6238226,1.6238226 0 0 0 1.747612,-1.674795 1.5728506,1.5728506 0 0 0 -1.747612,-1.601977 h -1.092257 v 3.349589 h 1.092257 z"
     id="path26"
     style="stroke-width:0.728172" />
  <path
     d="m 67.403525,11.76435 h 6.116641 v 2.184515 h -3.713675 v 2.621417 h 3.203955 v 2.111698 h -3.203955 v 2.839869 H 73.6658 v 2.111698 h -6.262275 z"
     id="path28"
     style="stroke-width:0.728172" />
  <path
     d="m 75.631863,11.76435 h 3.568041 c 2.621417,0 4.004943,1.601977 4.004943,3.568041 a 3.4151246,3.4151246 0 0 1 -1.820428,3.131137 l 2.839869,5.242836 H 81.60287 l -2.330149,-4.660298 h -1.310709 v 4.660298 H 75.559046 V 11.76435 Z m 3.495224,5.170018 a 1.4563431,1.4563431 0 0 0 1.601977,-1.601977 c 0,-0.946623 -0.655354,-1.529161 -1.747612,-1.529161 h -1.01944 v 3.131138 z"
     id="path30"
     style="stroke-width:0.728172" />
  <path
     d="m 88.01078,20.575226 -1.01944,3.058321 H 84.588373 L 88.811768,11.76435 h 2.548601 l 4.223396,11.869197 h -2.402966 l -1.019441,-3.058321 z m 1.966063,-6.262275 -1.383526,4.296212 h 2.767052 z"
     id="path32"
     style="stroke-width:0.728172" />
  <path
     d="m 97.76828,13.876048 h -2.767052 v -2.184515 h 7.937072 v 2.184515 h -2.76705 v 9.757499 h -2.40297 z"
     id="path34"
     style="stroke-width:0.728172" />
  <path
     d="m 104.39464,11.76435 h 2.40297 v 11.869197 h -2.40297 z"
     id="path36"
     style="stroke-width:0.728172" />
  <path
     d="M 112.40453,23.633547 108.0355,11.76435 h 2.62142 l 3.05832,9.102145 3.05832,-9.102145 h 2.62142 l -4.36903,11.869197 z"
     id="path38"
     style="stroke-width:0.728172" />
  <path
     d="m 120.63287,11.76435 h 6.11664 v 2.184515 h -3.71368 v 2.621417 h 3.20396 v 2.111698 h -3.20396 v 2.839869 h 3.85931 v 2.111698 h -6.26227 z"
     id="path40"
     style="stroke-width:0.728172" />
</svg>
